Enjoy! This has a preview of next episode S04E08 at the end.

Video
Format                           : MPEG-4 Visual
Codec ID                         : XVID
Duration                         : 47mn 49s
Bit rate                         : 921 Kbps
Width                            : 624 pixels
Height                           : 352 pixels
Display aspect ratio             : 16:9
Frame rate                       : 25.000 fps
Bits/(Pixel*Frame)               : 0.168
Stream size                      : 315 MiB (89%)

Audio
Format                           : MPEG Audio
Format profile                   : Layer 3
Mode                             : Joint stereo
Codec ID/Hint                    : MP3
Duration                         : 47mn 49s
Bit rate mode                    : Constant
Bit rate                         : 96.0 Kbps
Channel(s)                       : 2 channels
Sampling rate                    : 48.0 KHz
Bit depth                        : 16 bits
Stream size                      : 32.8 MiB (9%)
